<?xml version="1.0" encoding="UTF-8" standalone="no"?>
<!-- Created with Inkscape (http://www.inkscape.org/) -->

<svg
   version="1.1"
   id="svg1"
   width="169.94154"
   height="207.4341"
   viewBox="0 0 169.94154 207.4341"
   sodipodi:docname="images (5).png"
   inkscape:export-filename="..\Desktop\VisualStudioCode\2n\M9\UF2_NF1_P10\apple.svg"
   inkscape:export-xdpi="96"
   inkscape:export-ydpi="96"
   xmlns:inkscape="http://www.inkscape.org/namespaces/inkscape"
   xmlns:sodipodi="http://sodipodi.sourceforge.net/DTD/sodipodi-0.dtd"
   xmlns="http://www.w3.org/2000/svg"
   xmlns:svg="http://www.w3.org/2000/svg">
  <defs
     id="defs1">
    <inkscape:path-effect
       effect="bspline"
       id="path-effect2"
       is_visible="true"
       lpeversion="1.3"
       weight="33.333333"
       steps="2"
       helper_size="0"
       apply_no_weight="true"
       apply_with_weight="true"
       only_selected="false"
       uniform="false" />
    <inkscape:path-effect
       effect="bspline"
       id="path-effect1"
       is_visible="true"
       lpeversion="1.3"
       weight="33.333333"
       steps="2"
       helper_size="0"
       apply_no_weight="true"
       apply_with_weight="true"
       only_selected="false"
       uniform="false" />
  </defs>
  <sodipodi:namedview
     id="namedview1"
     pagecolor="#ffffff"
     bordercolor="#666666"
     borderopacity="1.0"
     inkscape:showpageshadow="2"
     inkscape:pageopacity="0.0"
     inkscape:pagecheckerboard="0"
     inkscape:deskcolor="#d1d1d1"
     inkscape:clip-to-page="true" />
  <g
     inkscape:groupmode="layer"
     inkscape:label="Image"
     id="g1"
     transform="translate(-27.255779,-8.5683833)">
    <path
       style="fill:none;stroke:#000000;stroke-width:1px;stroke-linecap:butt;stroke-linejoin:miter;stroke-opacity:1"
       d="m 112.58426,56.783176 c -0.55441,-0.233645 -0.76825,-0.590048 -0.85141,-2.023611 -0.0832,-1.433563 -0.0356,-3.944184 0.17425,-5.932145 0.20988,-1.98796 0.58212,-3.45315 0.93061,-4.855022 0.34849,-1.401872 0.67321,-2.740341 1.1405,-3.99173 0.46729,-1.251389 1.07712,-2.415619 1.81766,-3.829374 0.74054,-1.413756 1.61174,-3.076941 2.56216,-4.7481 0.95042,-1.671159 1.98001,-3.350187 2.95024,-4.605534 0.97022,-1.255346 1.88101,-2.086939 2.75223,-2.930439 0.87122,-0.843501 1.70281,-1.698853 2.56215,-2.534432 0.85934,-0.835578 1.74638,-1.651335 2.62156,-2.340389 0.87518,-0.689055 1.73845,-1.25137 2.76808,-1.881025 1.02962,-0.629655 2.22553,-1.326609 3.36208,-1.991903 1.13654,-0.665295 2.21366,-1.298894 3.34624,-1.861226 1.13259,-0.562331 2.32058,-1.053367 3.50465,-1.477097 1.18407,-0.42373 2.36414,-0.780127 3.72641,-1.168216 1.36227,-0.388089 2.90666,-0.8078457 4.22141,-1.120692 1.31475,-0.3128462 2.39978,-0.5187638 3.08487,-0.3643189 0.6851,0.1544449 0.97022,0.6692423 1.08902,1.6632309 0.1188,0.993989 0.0713,2.467097 -0.12673,4.118458 -0.19801,1.651361 -0.54649,3.480867 -1.04942,5.62328 -0.50293,2.142413 -1.16028,4.597597 -1.78994,6.617238 -0.62965,2.01964 -1.23157,3.60363 -2.05923,5.401513 -0.82766,1.797882 -1.88102,3.809551 -3.02944,5.817316 -1.14843,2.007765 -2.39186,4.011511 -4.08679,5.959876 -1.69492,1.948365 -3.84122,3.84123 -6.09056,5.484667 -2.24933,1.643436 -4.60155,3.037345 -6.81128,4.094686 -2.20973,1.057342 -4.27684,1.778058 -6.64893,2.277027 -2.3721,0.498968 -5.04904,0.776165 -6.83503,0.859325 -1.786,0.08316 -2.68095,-0.02772 -3.23536,-0.261363 z"
       id="path1"
       inkscape:original-d="m 112.2437,56.905939 c -0.21385,-0.356405 -0.42769,-0.712809 -0.64153,-1.069214 0.0475,-2.510723 0.095,-5.021345 0.14256,-7.532018 0.37225,-1.465248 0.74449,-2.930438 1.11674,-4.395657 0.32473,-1.338524 0.64944,-2.676995 0.97417,-4.015492 0.60986,-1.164278 1.21969,-2.32851 1.82954,-3.492765 0.87123,-1.663255 1.74242,-3.326443 2.61364,-4.989665 1.02963,-1.679095 2.05922,-3.358124 3.08884,-5.037186 0.91083,-0.831627 1.82162,-1.663221 2.73243,-2.494832 0.83163,-0.855388 1.66322,-1.710742 2.49483,-2.566113 0.88707,-0.815787 1.77411,-1.631541 2.66116,-2.447312 0.86331,-0.562339 1.72658,-1.124655 2.58987,-1.686982 1.19596,-0.696983 2.39187,-1.393938 3.58781,-2.090907 1.07715,-0.633621 2.15427,-1.267217 3.2314,-1.900825 1.18804,-0.491056 2.37603,-0.982093 3.56405,-1.473139 1.18012,-0.356412 2.36019,-0.712809 3.54028,-1.069214 1.54445,-0.419774 3.08884,-0.8395307 4.63326,-1.2592961 1.08508,-0.2059268 2.17011,-0.4118454 3.25517,-0.617768 0.28512,0.5148169 0.57024,1.0296133 0.85537,1.5444201 -0.0475,1.473169 -0.095,2.946278 -0.14257,4.419417 -0.34849,1.829581 -0.69696,3.659088 -1.04545,5.488632 -0.65738,2.455281 -1.31474,4.910463 -1.9721,7.365695 -0.60194,1.584052 -1.20386,3.168041 -1.80579,4.752062 -1.05339,2.011746 -2.10675,4.023412 -3.16012,6.035118 -1.24348,2.003826 -2.48691,4.007572 -3.73037,6.011358 -2.14639,1.892943 -4.29269,3.78581 -6.43904,5.678714 -2.35232,1.393966 -4.70454,2.787876 -7.05681,4.181814 -2.06719,0.720744 -4.1343,1.441459 -6.20144,2.162189 -2.67705,0.277209 -5.35399,0.554407 -8.03099,0.83161 -0.89499,-0.110883 -1.78994,-0.221763 -2.68491,-0.332644 z"
       inkscape:path-effect="#path-effect1" />
    <path
       style="fill:none;stroke:#000000;stroke-width:1px;stroke-linecap:butt;stroke-linejoin:miter;stroke-opacity:1"
       d="m 195.99574,160.23186 c -0.87925,-0.55444 -2.63776,-1.66331 -4.37389,-2.82259 -1.73613,-1.15929 -3.44981,-2.36895 -5.21394,-3.88106 -1.76413,-1.51212 -3.57861,-3.3266 -4.95631,-4.7435 -1.37769,-1.4169 -2.31854,-2.43614 -3.27061,-3.63463 -0.95207,-1.19849 -1.91531,-2.57616 -2.88978,-4.21148 -0.97447,-1.63532 -1.96012,-3.52821 -2.61536,-5.16353 -0.65525,-1.63531 -0.98006,-3.01297 -1.27688,-3.97624 -0.29682,-0.96327 -0.56563,-1.51209 -0.71124,-3.01861 -0.14561,-1.50652 -0.16801,-3.97063 -0.20161,-5.91397 -0.0336,-1.94334 -0.0784,-3.3658 -0.15121,-4.63709 -0.0728,-1.2713 -0.17361,-2.39135 -0.18481,-3.60104 -0.0112,-1.20969 0.0672,-2.50894 0.21842,-3.70743 0.15121,-1.19849 0.37522,-2.29614 0.66644,-3.38822 0.29122,-1.09208 0.64964,-2.17853 1.02487,-3.31541 0.37522,-1.13689 0.76724,-2.32414 1.17607,-3.48902 0.40884,-1.164889 0.83445,-2.30734 1.4113,-3.438624 0.57684,-1.131283 1.30487,-2.251332 2.11693,-3.354613 0.81206,-1.103281 1.7081,-2.189729 2.55936,-3.25941 0.85127,-1.069681 1.6577,-2.122525 2.58177,-3.091397 0.92407,-0.968871 1.96572,-1.853712 2.94019,-2.637768 0.97447,-0.784056 1.88171,-1.467285 2.99619,-2.296148 1.11449,-0.828863 2.43615,-1.803307 3.1922,-2.363344 0.75605,-0.560038 0.94646,-0.705644 -0.20724,-2.128162 -1.1537,-1.422517 -3.65141,-4.121836 -6.55243,-6.636421 -2.90102,-2.514585 -6.20516,-4.844286 -9.4254,-6.658816 -3.22024,-1.814529 -6.35638,-3.113786 -9.76143,-4.049051 -3.40506,-0.935266 -7.07882,-1.506491 -10.34385,-1.80891 -3.26504,-0.30242 -6.12117,-0.336021 -9.10619,0.0056 -2.98502,0.341629 -6.09876,1.05846 -8.92137,1.780914 -2.8226,0.722453 -5.35391,1.450485 -7.58228,2.193747 -2.22837,0.743261 -4.15367,1.501705 -6.03508,2.284867 -1.88142,0.783162 -3.71885,1.590998 -5.51673,2.010763 -1.79788,0.419765 -3.55611,0.451444 -5.31439,0.257397 -1.75828,-0.194047 -3.51651,-0.613804 -6.0787,-1.425626 -2.56218,-0.811822 -5.92816,-2.015655 -8.755659,-3.021516 -2.827498,-1.005861 -5.116362,-1.813695 -7.785467,-2.439388 -2.669105,-0.625692 -5.718284,-1.069209 -8.225016,-1.283052 -2.506732,-0.213843 -4.470879,-0.198003 -6.221237,-0.134641 -1.750358,0.06336 -3.286827,0.174241 -4.803541,0.447488 -1.516715,0.273248 -3.013585,0.708845 -4.569901,1.247419 -1.556317,0.538573 -3.171985,1.180089 -5.207476,2.185955 -2.035491,1.005867 -4.490674,2.376017 -6.367751,3.405638 -1.877078,1.02962 -3.175949,1.718655 -4.379816,2.550275 -1.203866,0.831621 -2.312658,1.805774 -3.326441,2.724515 -1.013782,0.918741 -1.932496,1.782014 -2.819556,2.732437 -0.88706,0.950423 -1.742414,1.987936 -2.566113,3.112602 -0.823698,1.124667 -1.615693,2.336418 -2.451272,3.587808 -0.83558,1.251389 -1.714694,2.54234 -2.49087,3.884812 -0.776177,1.342471 -1.449372,2.736381 -1.968143,3.995688 -0.51877,1.259308 -0.883087,2.38394 -1.290977,3.457124 -0.40789,1.073184 -0.859327,2.094857 -1.294937,3.338328 -0.435609,1.243471 -0.855366,2.708661 -1.203853,4.122412 -0.348487,1.41375 -0.625686,2.77598 -0.879132,4.10658 -0.253447,1.33059 -0.483125,2.62946 -0.653408,3.92441 -0.170283,1.29495 -0.281162,2.5859 -0.407885,3.96401 -0.126723,1.37811 -0.269282,2.8433 -0.407885,4.18181 -0.138603,1.33851 -0.273242,2.55026 -0.328683,4.6808 -0.05544,2.13054 -0.03168,5.17972 0.102963,7.82506 0.134644,2.64533 0.380162,4.88667 0.586086,7.00928 0.205925,2.12261 0.372244,4.12636 0.61381,5.56782 0.241566,1.44147 0.558362,2.32058 0.843489,3.23141 0.285128,0.91082 0.538566,1.85329 0.772211,2.85519 0.233646,1.00191 0.447484,2.06318 0.66925,3.08092 0.221765,1.01775 0.451443,1.9919 0.74053,2.88688 0.289088,0.89498 0.637564,1.71073 0.92665,2.68491 0.289087,0.97419 0.518764,2.10674 0.843492,3.20369 0.324728,1.09694 0.744488,2.15822 1.342462,3.8175 0.597974,1.65928 1.37413,3.91647 2.19387,5.76979 0.819741,1.85332 1.683016,3.30267 2.368109,4.54613 0.685094,1.24347 1.19197,2.28098 1.702821,3.38188 0.510851,1.10091 1.025646,2.26514 1.663223,3.58782 0.637576,1.32267 1.39789,2.8037 2.166149,4.12241 0.768259,1.31871 1.544413,2.47502 2.277029,3.47296 0.732615,0.99794 1.421647,1.83745 2.150305,2.81164 0.728657,0.97418 1.496891,2.08297 2.395835,3.38585 0.898943,1.30287 1.928536,2.79974 2.958158,4.11845 1.029622,1.3187 2.05922,2.45918 3.084882,3.51652 1.025662,1.05734 2.047338,2.0315 3.029438,3.00172 0.982101,0.97022 1.924572,1.93645 2.898757,2.875 0.974185,0.93854 1.980017,1.84933 2.934398,2.63343 0.954381,0.78409 1.857256,1.44145 2.764117,2.10675 0.906861,0.66529 1.817657,1.33849 2.732436,1.83349 0.914779,0.49501 1.833493,0.81181 3.069045,0.99002 1.235552,0.1782 2.787861,0.2178 4.554064,0.22572 1.766203,0.008 3.746189,-0.0158 5.314381,-0.0158 1.568193,0 2.724502,0.0238 4.023414,-0.24552 1.298913,-0.26929 2.740344,-0.8316 3.999651,-1.31473 1.259307,-0.48314 2.336417,-0.88705 3.437324,-1.33059 1.100906,-0.44353 2.225536,-0.92664 3.24328,-1.30285 1.01774,-0.37621 1.92854,-0.64549 2.89084,-0.96229 0.9623,-0.31681 1.97605,-0.68112 3.073,-0.96625 1.09695,-0.28513 2.27702,-0.49105 4.265,-0.59004 1.98797,-0.099 4.78371,-0.0911 6.93403,-0.0831 2.15032,0.008 3.65511,0.0159 5.11242,0.17032 1.45732,0.15445 2.86707,0.45541 4.33231,0.83162 1.46523,0.37621 2.98586,0.82764 4.20952,1.25137 1.22367,0.42373 2.1503,0.81973 3.19181,1.25534 1.0415,0.43561 2.19781,0.9108 3.16407,1.27513 0.96626,0.36433 1.74242,0.61777 3.19974,0.96626 1.45732,0.34849 3.5957,0.792 5.29853,0.99001 1.70284,0.198 2.97003,0.15048 4.34022,0.11484 1.3702,-0.0357 2.84331,-0.0594 3.94421,-0.28118 1.1009,-0.22178 1.82954,-0.64154 2.37999,-0.87914 0.55044,-0.2376 0.92268,-0.29304 2.43941,-1.0019 1.51673,-0.70887 4.17783,-2.0711 6.32024,-3.41357 2.1424,-1.34247 3.76599,-2.6651 5.21538,-4.06697 1.44939,-1.40187 2.7245,-2.8829 4.40754,-4.86691 1.68305,-1.98401 3.77391,-4.47088 5.60347,-7.0885 1.82956,-2.61762 3.39771,-5.36584 5.00154,-8.14979 1.60384,-2.78394 3.24327,-5.60344 4.53821,-8.1577 1.29495,-2.55425 2.24535,-4.84312 3.32597,-7.59534 1.08062,-2.75222 2.2914,-5.96762 2.8968,-7.57536 0.6054,-1.60773 0.60539,-1.60779 -0.27387,-2.16222 z"
       id="path2"
       inkscape:path-effect="#path-effect2"
       inkscape:original-d="m 196.875,160.78629 c -1.75851,-1.10887 -3.51702,-2.21774 -5.27554,-3.32661 -1.71374,-1.2097 -3.42742,-2.41936 -5.14113,-3.62903 -1.81455,-1.81456 -3.62903,-3.62904 -5.44354,-5.44355 -0.94088,-1.01929 -1.88173,-2.03853 -2.82259,-3.0578 -0.96328,-1.37771 -1.92652,-2.75538 -2.88978,-4.13306 -0.98568,-1.89296 -1.97133,-3.78585 -2.95699,-5.67877 -0.32483,-1.37771 -0.64964,-2.75537 -0.97446,-4.13306 -0.26882,-0.54885 -0.53764,-1.09767 -0.80645,-1.64651 -0.0224,-2.4642 -0.0448,-4.92831 -0.0672,-7.39247 -0.0448,-1.42252 -0.0896,-2.84498 -0.13441,-4.26747 -0.1008,-1.1201 -0.20161,-2.24015 -0.30242,-3.36022 0.0784,-1.29931 0.15681,-2.59856 0.23522,-3.89785 0.22402,-1.09769 0.44803,-2.19534 0.67204,-3.29301 0.35843,-1.08649 0.71685,-2.17294 1.07527,-3.25941 0.39203,-1.1873 0.78405,-2.37455 1.17608,-3.56182 0.42563,-1.142501 0.85125,-2.284951 1.27688,-3.427424 0.72806,-1.120094 1.45609,-2.240143 2.18414,-3.360215 0.89607,-1.086491 1.79211,-2.172939 2.68817,-3.259409 0.80647,-1.052888 1.6129,-2.105734 2.41935,-3.158602 1.04169,-0.884874 2.08334,-1.769713 3.125,-2.65457 0.90728,-0.683257 1.81452,-1.366487 2.72178,-2.049731 1.32171,-0.974482 2.64337,-1.948925 3.96505,-2.923387 0.19042,-0.145612 0.38083,-0.291219 0.57124,-0.436828 -2.49781,-2.699427 -4.99552,-5.398746 -7.49328,-8.098118 -3.30428,-2.329796 -6.60842,-4.659499 -9.91263,-6.989248 -3.13627,-1.299309 -6.27241,-2.598566 -9.40861,-3.897849 -3.67391,-0.571248 -7.34767,-1.142473 -11.0215,-1.71371 -2.85624,-0.0336 -5.71237,-0.0672 -8.56855,-0.100806 -3.11386,0.71686 -6.2276,1.433692 -9.3414,2.150537 -2.53141,0.728062 -5.06272,1.456094 -7.59408,2.18414 -1.92538,0.758474 -3.85068,1.516918 -5.77601,2.275377 -1.8375,0.807867 -3.67493,1.615701 -5.51239,2.423552 -1.7583,0.03168 -3.51653,0.06336 -5.27479,0.09504 -1.7583,-0.419774 -3.51653,-0.839531 -5.27479,-1.259296 -3.36611,-1.20388 -6.73209,-2.407712 -10.098132,-3.611567 -2.288955,-0.807867 -4.577819,-1.615701 -6.866729,-2.423552 -3.0493,-0.443534 -6.098479,-0.887051 -9.147719,-1.330577 -1.964224,0.01584 -3.928371,0.03168 -5.892556,0.04752 -1.536531,0.110883 -3.073,0.221762 -4.6095,0.332644 -1.496929,0.435614 -2.993799,0.871211 -4.490698,1.306817 -1.615734,0.641541 -3.231402,1.283057 -4.847103,1.924585 -2.455281,1.370205 -4.910464,2.740355 -7.365696,4.110533 -1.298923,0.689063 -2.597794,1.378098 -3.896691,2.067147 -1.108836,0.974192 -2.217628,1.948345 -3.326443,2.922518 -0.91875,0.863309 -1.837464,1.726582 -2.756196,2.589874 -0.855388,1.037554 -1.710742,2.075067 -2.566113,3.1126 -0.792026,1.2118 -1.58402,2.423552 -2.376031,3.635327 -0.879149,1.291003 -1.758263,2.581954 -2.637394,3.872931 -0.673222,1.393966 -1.346417,2.787876 -2.019626,4.181814 -0.364332,1.124677 -0.72865,2.249309 -1.092974,3.373964 -0.451455,1.021713 -0.902892,2.043386 -1.354338,3.06508 -0.419774,1.465248 -0.839531,2.930438 -1.259296,4.395659 -0.27721,1.36228 -0.554408,2.72451 -0.831611,4.08677 -0.229688,1.29893 -0.459366,2.5978 -0.689049,3.89669 -0.110884,1.29101 -0.221763,2.58196 -0.332644,3.87293 -0.142565,1.46525 -0.285124,2.93044 -0.427686,4.39566 -0.134644,1.2118 -0.269283,2.42355 -0.403925,3.63533 0.02376,3.0493 0.04752,6.09848 0.07128,9.14772 0.245528,2.24143 0.491046,4.48277 0.736569,6.72416 0.166326,2.00383 0.332645,4.00758 0.498967,6.01136 0.31681,0.87915 0.633608,1.75826 0.950412,2.6374 0.253448,0.94251 0.506887,1.88498 0.76033,2.82747 0.213847,1.06132 0.427686,2.12259 0.641528,3.18388 0.229688,0.9742 0.459366,1.94835 0.689049,2.92252 0.348492,0.81579 0.696969,1.63154 1.045454,2.44731 0.229687,1.1326 0.459366,2.26515 0.689049,3.39773 0.419774,1.06131 0.839531,2.12259 1.259296,3.18388 0.776186,2.25727 1.55234,4.51446 2.32851,6.77169 0.863309,1.44941 1.726583,2.89876 2.589874,4.34813 0.506897,1.03756 1.013773,2.07507 1.52066,3.1126 0.514817,1.16428 1.029613,2.32851 1.54442,3.49277 0.760345,1.48109 1.52066,2.96212 2.280989,4.44318 0.776186,1.15636 1.552341,2.31267 2.328511,3.469 0.689062,0.83955 1.378098,1.67906 2.067146,2.5186 0.768266,1.10883 1.5365,2.21762 2.30475,3.32644 1.029634,1.49693 2.059227,2.9938 3.088841,4.4907 1.029633,1.14051 2.059226,2.28099 3.08884,3.42148 1.021713,0.97419 2.043386,1.94835 3.065079,2.92252 0.942512,0.96627 1.884985,1.9325 2.827477,2.89876 1.005873,0.91083 2.011706,1.82162 3.017559,2.73243 0.90291,0.65738 1.805784,1.31474 2.708676,1.97211 0.91083,0.67322 1.821623,1.34642 2.732435,2.01962 0.91875,0.31681 1.837464,0.63361 2.756196,0.95042 1.552371,0.0396 3.10468,0.0792 4.65702,0.1188 1.980066,-0.0238 3.960052,-0.0475 5.940077,-0.0713 1.156359,0.0238 2.31267,0.0475 3.469005,0.0713 1.441488,-0.56234 2.882918,-1.12466 4.324377,-1.68698 1.077155,-0.40394 2.154268,-0.80785 3.231402,-1.21178 1.124677,-0.48314 2.249309,-0.96625 3.373962,-1.44938 0.91083,-0.26929 1.82163,-0.53857 2.73244,-0.80785 1.01379,-0.36433 2.02754,-0.72865 3.04132,-1.09297 1.18012,-0.20593 2.36019,-0.41185 3.54028,-0.61777 2.79586,0.008 5.5916,0.0158 8.38739,0.0238 1.50485,0.008 3.00964,0.0158 4.51446,0.0238 1.40981,0.30097 2.81956,0.60193 4.22934,0.90289 1.52069,0.45146 3.04132,0.90289 4.56198,1.35434 0.92667,0.39601 1.8533,0.79201 2.77995,1.18801 1.15636,0.47522 2.31267,0.95042 3.46901,1.42562 0.77618,0.25345 1.55234,0.50689 2.32851,0.76033 2.13847,0.44354 4.27685,0.88705 6.41528,1.33058 1.26724,-0.0475 2.53443,-0.095 3.80165,-0.14256 1.47317,-0.0238 2.94628,-0.0475 4.41942,-0.0713 0.72866,-0.41978 1.4573,-0.83953 2.18594,-1.2593 0.37226,-0.0554 0.74449,-0.11088 1.11674,-0.16632 2.66121,-1.36229 5.32231,-2.72452 7.98346,-4.08677 1.62366,-1.32269 3.24725,-2.64532 4.87087,-3.96798 1.27516,-1.48108 2.55027,-2.96211 3.82541,-4.44317 2.09094,-2.48697 4.18181,-4.97383 6.27272,-7.46074 1.56821,-2.74833 3.13636,-5.49655 4.70454,-8.24483 1.63949,-2.81961 3.27892,-5.63911 4.91838,-8.45867 0.95043,-2.28895 1.90083,-4.57782 2.85124,-6.86673 1.21083,-3.21553 2.42161,-6.43093 3.63241,-9.6464 z" />
  </g>
</svg>
