<?xml version="1.0" encoding="UTF-8" standalone="no"?>
<!-- Created with Inkscape (http://www.inkscape.org/) -->

<svg
   version="1.1"
   id="svg1"
   width="225"
   height="225"
   viewBox="0 0 225 225"
   sodipodi:docname="images (5).png"
   xmlns:inkscape="http://www.inkscape.org/namespaces/inkscape"
   xmlns:sodipodi="http://sodipodi.sourceforge.net/DTD/sodipodi-0.dtd"
   xmlns="http://www.w3.org/2000/svg"
   xmlns:svg="http://www.w3.org/2000/svg">
  <defs
     id="defs1" />
  <sodipodi:namedview
     id="namedview1"
     pagecolor="#ffffff"
     bordercolor="#666666"
     borderopacity="1.0"
     inkscape:showpageshadow="2"
     inkscape:pageopacity="0.0"
     inkscape:pagecheckerboard="0"
     inkscape:deskcolor="#d1d1d1" />
  <g
     inkscape:groupmode="layer"
     id="layer1"
     inkscape:label="Image 1">
    <path
       style="fill:none;stroke:#000000;stroke-width:1px;stroke-linecap:butt;stroke-linejoin:miter;stroke-opacity:1"
       d="m 124.26641,177.72711 -0.0475,-16.29957 28.98758,-10.3595 17.82023,-6.55784 2.7562,-1.23554 1.04545,-1.66322 -0.76033,-1.28306 -2.42355,-1.28305 -1.99587,-0.23761 h -3.04132 -6.27272 l -35.21278,12.68801 -1.47313,-0.42769 0.0475,-16.58469 5.41735,-2.7562 5.89255,-1.14049 5.89256,-1.47314 4.75206,-0.57025 9.4566,-0.90289 h 4.70455 l 4.65702,0.14256 9.64668,1.42562 6.89049,1.90082 10.21693,3.2314 4.51446,2.42356 2.7562,2.61363 1.71074,2.9938 0.19008,3.70661 -1.99586,2.9938 -4.70454,3.37396 -4.1343,2.47107 -6.79545,2.94628 -7.41321,2.51859 -34.97518,12.87809 -15.06403,5.13223 z"
       id="path1" />
    <path
       style="fill:none;stroke:#000000;stroke-width:1px;stroke-linecap:butt;stroke-linejoin:miter;stroke-opacity:1"
       d="m 85.014384,162.66307 -0.237603,-15.06403 -1.995866,0.14256 -16.489654,5.89256 h -11.49999 l -2.851237,-1.42562 -0.475206,-0.80785 0.617768,-1.1405 33.169391,-12.40288 v -17.67767 l -45.382189,15.91941 -7.270655,3.89669 -4.989664,2.66115 -2.185949,2.61364 -0.76033,2.13842 v 2.70868 l 2.423552,3.89669 2.661154,2.42355 4.894624,2.37603 4.752062,2.13843 7.033051,2.18595 10.359494,1.71074 17.915273,0.33264 3.706608,-0.76032 4.942144,-0.57025 z"
       id="path2" />
    <path
       style="fill:none;stroke:#000000;stroke-width:1px;stroke-linecap:butt;stroke-linejoin:miter;stroke-opacity:1"
       d="M 118.75,180.24194 90.591398,171.43817 V 44.388441 l 30.846772,8.064516 9.91264,3.225807 6.78763,3.091397 5.27554,2.016129 4.83871,3.057796 4.7715,4.166667 3.86425,4.872312 2.15054,4.133064 1.27688,3.494624 1.07527,3.293011 0.80645,4.771505 0.23522,14.247311 -0.70565,4.6707 -1.44489,3.94825 -2.16734,4.6539 -2.16734,2.45296 -3.209,3.02419 -3.76345,1.5793 -5.35954,0.60484 -5.09072,-0.21841 -4.26748,-1.00807 -3.27621,-1.49529 -1.24328,-0.87366 -0.0672,-47.631048 -1.37769,-2.738575 -2.35215,-1.71371 -1.42809,-0.62164 -2.90659,0.15121 -1.39449,1.831317 -0.94086,3.830645 -0.28561,106.502021 z"
       id="path3" />
    <path
       style="fill:#000000;stroke-width:0.380165"
       d="m 109.86767,176.73603 c -4.28636,-1.3518 -10.231192,-3.22761 -13.210735,-4.16847 l -5.41735,-1.71064 v -62.71361 c 0,-34.492479 0.115543,-62.7136 0.256764,-62.7136 0.14122,0 7.124185,1.792858 15.517701,3.984129 14.69465,3.836289 23.66256,6.578501 26.87736,8.218573 0.83832,0.427676 3.36548,1.512965 5.61593,2.411754 6.30721,2.518992 11.23644,6.151451 14.99029,11.046677 2.42339,3.160239 3.76816,5.737696 5.19624,9.95938 1.67711,4.957836 1.96928,7.769323 1.79047,17.229062 -0.15478,8.188865 -0.20441,8.655615 -1.18419,11.137245 -1.8144,4.59564 -2.93977,6.48561 -5.32523,8.94333 -3.34531,3.44667 -5.28863,4.2362 -11.08249,4.50262 -5.01826,0.23075 -7.72522,-0.24758 -11.49999,-2.03211 l -1.99587,-0.94355 V 96.164291 c 0,-23.454137 -0.009,-23.741449 -0.81238,-25.394669 -0.58193,-1.197785 -1.36905,-2.009511 -2.77468,-2.861407 -3.86174,-2.340461 -6.77872,-1.197517 -7.75668,3.039263 -0.30312,1.313199 -0.44144,7.767502 -0.4416,20.606233 -3.7e-4,29.564529 -0.48292,87.696759 -0.72773,87.667099 -0.12235,-0.0148 -3.72947,-1.13298 -8.01583,-2.48478 z"
       id="path4" />
    <path
       style="fill:#000000;stroke-width:0.380165"
       d="m 125.07426,169.61887 v -7.72807 l 13.5909,-4.85944 c 16.9434,-6.05813 31.67702,-11.45069 33.95195,-12.42654 1.03509,-0.44401 2.00483,-1.2036 2.40806,-1.88622 0.62323,-1.05504 0.62839,-1.21412 0.0673,-2.07053 -0.33431,-0.51022 -1.28281,-1.27203 -2.10779,-1.6929 -1.308,-0.66729 -2.2379,-0.76522 -7.2665,-0.76522 h -5.76655 l -17.43534,6.27273 c -9.58944,3.44999 -17.60791,6.27272 -17.81883,6.27272 -0.24559,0 -0.38348,-2.84896 -0.38348,-7.92352 v -7.92351 l 2.94628,-1.35435 c 1.62046,-0.7449 3.63058,-1.4667 4.46694,-1.60401 0.83636,-0.13731 3.65909,-0.73916 6.27272,-1.33744 5.36528,-1.22815 15.27969,-2.2869 21.41516,-2.2869 4.49761,0 12.40524,1.07035 17.17158,2.3243 10.94772,2.88017 18.35228,5.89756 20.56245,8.37931 2.62647,2.94919 3.15547,5.93109 1.48763,8.38554 -1.98549,2.92191 -11.78474,8.44617 -19.38892,10.93037 -1.46364,0.47815 -10.78718,3.8614 -20.71899,7.51834 -17.63644,6.49381 -31.99376,11.50341 -32.96835,11.50341 -0.37884,0 -0.48617,-1.70611 -0.48617,-7.72807 z"
       id="path5" />
    <path
       style="fill:#000000;stroke-width:0.380165"
       d="m 58.355318,164.17426 c -3.957828,-0.29261 -11.921939,-1.77903 -15.39668,-2.87365 -4.463108,-1.40597 -12.744854,-5.30764 -14.175575,-6.67836 -0.584226,-0.55973 -1.589684,-1.83965 -2.234351,-2.84428 -1.016389,-1.5839 -1.147815,-2.07955 -0.989176,-3.73054 0.292148,-3.04044 1.54313,-4.23167 8.309094,-7.91219 5.488784,-2.98577 7.248472,-3.67571 27.876431,-10.92975 12.109802,-4.25853 22.163815,-7.74279 22.342249,-7.74279 0.178434,0 0.278258,3.60154 0.221826,8.00342 l -0.102603,8.00342 -16.417791,6.14319 c -17.055178,6.38168 -17.720994,6.71428 -16.78589,8.38522 0.198103,0.35399 1.028496,0.98457 1.845316,1.40128 1.307364,0.66696 2.242809,0.75765 7.815177,0.75765 h 6.33005 l 7.973754,-2.85124 c 4.385564,-1.56818 8.196063,-2.85123 8.467775,-2.85123 0.376819,0 0.560401,1.6363 0.773807,6.89718 0.326451,8.04753 0.633259,7.44282 -4.184012,8.24666 -2.901761,0.48422 -17.619356,0.87543 -21.669401,0.57601 z"
       id="path6" />
  </g>
</svg>
